<svg width="56" height="56" viewBox="0 0 56 56" fill="none" xmlns="http://www.w3.org/2000/svg">
<circle cx="28" cy="28" r="28" fill="#101010"/>
<path d="M30 25.77C29.4509 25.2758 28.7387 25.0017 28 25C27.2044 25 26.4413 25.3161 25.8787 25.8787C25.3161 26.4413 25 27.2044 25 28C25 28.7956 25.3161 29.5587 25.8787 30.1213C26.4413 30.6839 27.2044 31 28 31C28.7387 30.9983 29.4509 30.7242 30 30.23" stroke="white" stroke-width="2" stroke-linecap="round" stroke-linejoin="round"/>
<path d="M24 28H27H24ZM37 21H19V35H37V21ZM37 21H33C33 22.0609 33.4214 23.0783 34.1716 23.8284C34.9217 24.5786 35.9391 25 37 25V21ZM19 25C20.0609 25 21.0783 24.5786 21.8284 23.8284C22.5786 23.0783 23 22.0609 23 21H19V25ZM37 31C35.9391 31 34.9217 31.4214 34.1716 32.1716C33.4214 32.9217 33 33.9391 33 35H37V31ZM19 35H23C23 33.9391 22.5786 32.9217 21.8284 32.1716C21.0783 31.4214 20.0609 31 19 31V31V35Z" stroke="white" stroke-width="2" stroke-linecap="round" stroke-linejoin="round"/>
</svg>
