<svg width="42" height="42" viewBox="0 0 42 42" fill="none" xmlns="http://www.w3.org/2000/svg">
<circle cx="21" cy="21" r="21" fill="#1053F3"/>
<path d="M10.5418 20.8382C10.6207 20.1279 10.6248 19.3979 10.7966 18.7107C11.0383 17.7448 11.3753 16.8101 11.8718 15.9215C12.4275 14.9268 13.1304 14.0637 13.9311 13.2876C14.9233 12.3267 16.0602 11.5342 17.359 11.032C18.0898 10.7492 18.8666 10.588 19.6098 10.3324C20.7549 9.93781 21.9394 9.9748 23.11 10.043C23.9296 10.0907 24.7508 10.2814 25.549 10.4919C26.2946 10.6883 27.0328 10.9465 27.7373 11.2613C28.9219 11.7899 29.9643 12.5511 30.8455 13.503C31.3897 14.0908 31.8607 14.7451 32.3663 15.3683C32.5685 15.6173 32.7477 15.9018 33.1407 15.6165C33.4859 15.3658 33.878 15.1775 34.2085 14.9104C34.3523 14.7936 34.511 14.4903 34.4543 14.3777C34.3622 14.1952 34.1115 14.0275 33.9019 13.9847C33.5583 13.9149 33.1916 13.9223 32.8381 13.9469C32.1887 13.9913 31.8254 13.6058 31.5229 13.1241C31.3897 12.912 31.5418 12.6571 31.8303 12.6407C32.8899 12.579 33.9578 12.4467 35.01 12.5215C35.7901 12.5766 36.5965 12.6432 37.3413 13.069C37.9356 13.4093 38.1831 14.113 37.8518 14.746C37.4663 15.4817 36.8374 16.0029 36.1354 16.3843C35.2961 16.8414 34.4239 17.282 33.513 17.55C32.4444 17.8648 31.3387 17.8854 30.2059 17.6404C29.157 17.4135 28.1369 17.1661 27.2301 16.5923C26.7739 16.3037 26.3801 15.9166 25.9518 15.5812C25.8795 15.5244 25.78 15.5031 25.6937 15.4661C25.665 15.5491 25.6082 15.6329 25.6107 15.7152C25.6765 17.9898 24.39 19.4818 22.6637 20.6647C21.7939 21.2615 20.8404 21.749 19.8868 22.2069C19.1864 22.5431 18.4293 22.765 17.6895 23.0141C17.0063 23.2443 16.3207 23.4802 15.6204 23.6454C14.5254 23.9036 13.4247 24.1633 12.3116 24.3121C11.0424 24.4823 9.75834 24.5933 8.47924 24.6097C7.69829 24.6196 6.88858 24.488 6.13887 24.2644C4.89511 23.8929 4.65425 22.839 5.49439 21.8616C6.26958 20.959 7.26096 20.3293 8.27784 19.7399C8.66091 19.5179 9.05467 19.3149 9.45008 19.116C9.71395 18.9828 9.91124 19.0913 9.92933 19.3913C9.96221 19.9249 9.87343 20.3819 9.33581 20.7009C8.94534 20.9327 8.61652 21.287 8.30907 21.6306C8.11918 21.8427 8.25646 22.2069 8.52527 22.3236C9.10728 22.5751 9.72546 22.5406 10.3338 22.4888C10.4357 22.4798 10.587 22.2537 10.5977 22.1181C10.6322 21.6964 10.61 21.2697 10.61 20.8456C10.5878 20.8439 10.5648 20.8414 10.5426 20.8398L10.5418 20.8382Z" fill="white"/>
<path d="M34.063 21.0175C33.975 21.8066 33.9635 22.6065 33.7827 23.3652C33.5081 24.5153 33.0544 25.6078 32.4123 26.6164C31.8295 27.533 31.1431 28.3772 30.3063 29.0456C29.0978 30.0107 27.7826 30.8179 26.2601 31.2454C25.4126 31.4829 24.5708 31.6876 23.6888 31.7279C23.3123 31.7452 22.9325 31.8882 22.5642 31.8578C21.8819 31.8027 21.2095 31.6408 20.528 31.5635C19.7569 31.4755 19.0886 31.1475 18.4614 30.7299C17.678 30.2079 17.0261 29.5446 16.749 28.6247C16.5583 27.9901 16.4786 27.3587 16.6389 26.6477C17.1009 24.5901 18.5477 23.5855 20.3192 22.8243C21.4914 22.3212 22.7114 22.1552 23.9592 22.2259C25.4677 22.3122 26.9531 22.5432 28.1952 23.5165C28.4887 23.7467 28.7345 24.0385 29.0074 24.2958C29.074 24.3583 29.1644 24.3944 29.2442 24.4421C29.277 24.3459 29.3568 24.2366 29.3338 24.1569C29.1595 23.5526 29.3395 22.992 29.4908 22.4174C29.9889 20.5218 31.3387 19.3816 32.9524 18.4716C33.4415 18.1962 33.7621 18.3696 33.8205 18.9147C33.8953 19.6142 33.98 20.3121 34.0614 21.0183L34.063 21.0175Z" fill="white"/>
</svg>
